# xmcd
#
# Track frame offsets:
#	150
#	29715
#	55793
#	80138
#	117181
#	139861
#
# Disc length: 2302 seconds
#
# Revision: 0
# Processed by: cddbd v1.5.2PL0 Copyright (c) Steve Scherf et al.
# Submitted via: EasyCDDAExtractor 11.5.3.1
#
DISCID=5208fc06
DTITLE=John Lee Hooker - Black Night is Falling
DYEAR=1994
DGENRE=Blues
TTITLE0=Chicken and Gravy
TTITLE1=Serves Me Right to Suffer
TTITLE2=Boom Boom
TTITLE3=Black Night
TTITLE4=One Scotch, One Bourbon, One Beer
TTITLE5=One Room Country Shack
EXTD=
EXTT0=
EXTT1=
EXTT2=
EXTT3=
EXTT4=
EXTT5=
PLAYORDER=
